<svg width="63" height="70" viewBox="0 0 63 70" fill="none" xmlns="http://www.w3.org/2000/svg">
<path d="M9.46912 52.5093C9.46912 53.0595 9.9151 53.5054 10.4652 53.5054C11.0153 53.5054 11.4613 53.0595 11.4613 52.5093V50.5171C11.4613 49.9668 11.0153 49.521 10.4652 49.521C9.9151 49.521 9.46912 49.9668 9.46912 50.5171V52.5093Z" fill="black" stroke="white" stroke-width="0.5"/>
<path d="M10.4652 47.2632C11.0155 47.2632 11.4613 46.8173 11.4613 46.2671V44.2749C11.4613 43.7247 11.0153 43.2788 10.4652 43.2788C9.9151 43.2788 9.46912 43.7247 9.46912 44.2749V46.2671C9.46912 46.8173 9.91497 47.2632 10.4652 47.2632Z" fill="black" stroke="white" stroke-width="0.5"/>
<path d="M41.4852 64.9849C42.2988 64.9849 42.9609 64.3231 42.9609 63.5094V62.8599C42.9609 62.3096 42.5149 61.8638 41.9648 61.8638C41.4147 61.8638 40.9687 62.3096 40.9687 62.8599V62.9927H40.8958C40.3455 62.9927 39.8997 63.4385 39.8997 63.9888C39.8997 64.539 40.3456 64.9849 40.8958 64.9849H41.4852Z" fill="black" stroke="white" stroke-width="0.5"/>
<path d="M36.6455 64.9849C37.1958 64.9849 37.6416 64.539 37.6416 63.9888C37.6416 63.4385 37.1956 62.9927 36.6455 62.9927H34.6532C34.103 62.9927 33.6571 63.4385 33.6571 63.9888C33.6571 64.539 34.1031 64.9849 34.6532 64.9849H36.6455Z" fill="black" stroke="white" stroke-width="0.5"/>
<path d="M30.403 64.9849C30.9532 64.9849 31.3991 64.539 31.3991 63.9888C31.3991 63.4385 30.9531 62.9927 30.403 62.9927H28.4106C27.8604 62.9927 27.4146 63.4385 27.4146 63.9888C27.4146 64.539 27.8605 64.9849 28.4106 64.9849H30.403Z" fill="black" stroke="white" stroke-width="0.5"/>
<path d="M17.9181 64.9849C18.4683 64.9849 18.9142 64.539 18.9142 63.9888C18.9142 63.4385 18.4682 62.9927 17.9181 62.9927H15.9258C15.3755 62.9927 14.9297 63.4385 14.9297 63.9888C14.9297 64.539 15.3757 64.9849 15.9258 64.9849H17.9181Z" fill="black" stroke="white" stroke-width="0.5"/>
<path d="M9.46912 58.7515C9.46912 59.3017 9.9151 59.7476 10.4652 59.7476C11.0153 59.7476 11.4613 59.3017 11.4613 58.7515V56.7593C11.4613 56.209 11.0153 55.7632 10.4652 55.7632C9.9151 55.7632 9.46912 56.209 9.46912 56.7593V58.7515Z" fill="black" stroke="white" stroke-width="0.5"/>
<path d="M24.1605 64.9849C24.7108 64.9849 25.1566 64.539 25.1566 63.9888C25.1566 63.4385 24.7106 62.9927 24.1605 62.9927H22.1682C21.618 62.9927 21.1721 63.4385 21.1721 63.9888C21.1721 64.539 21.6181 64.9849 22.1682 64.9849H24.1605Z" fill="black" stroke="white" stroke-width="0.5"/>
<path d="M9.46912 63.5095C9.46912 64.3231 10.1312 64.985 10.9448 64.985H11.6757C12.2259 64.985 12.6718 64.5392 12.6718 63.9889C12.6718 63.4387 12.2258 62.9928 11.6757 62.9928H11.4614C11.4568 62.4467 11.0125 62.0054 10.4653 62.0054C9.9151 62.0054 9.46925 62.4512 9.46925 63.0015L9.46912 63.5095Z" fill="black" stroke="white" stroke-width="0.5"/>
<path d="M60.6759 31.2804L58.328 28.9326C57.9389 28.5437 57.3083 28.5437 56.9192 28.9326C56.5302 29.3217 56.5302 29.9523 56.9192 30.3413L59.267 32.689C60.6191 34.0412 60.6191 36.2412 59.267 37.5933L37.6716 59.1878C36.3195 60.5401 34.1195 60.5401 32.7675 59.1878L4.05381 30.4755C3.38709 29.8089 3.0172 28.886 3.03899 27.9435L3.52574 6.83576C3.56864 4.97931 5.05641 3.49168 6.91273 3.44891L9.04968 3.39964C9.59966 3.38689 10.0353 2.93081 10.0227 2.38083C10.0102 1.83869 9.56672 1.40771 9.02724 1.40771C9.0194 1.40771 9.0117 1.40785 9.00386 1.40798L6.86691 1.45725C3.9441 1.52472 1.60169 3.867 1.53409 6.78994L1.04733 27.8977C1.01306 29.3816 1.59545 30.8346 2.64506 31.8843L5.48473 34.7239V55.1175C5.48473 55.6677 5.93071 56.1136 6.48082 56.1136C7.03093 56.1136 7.47692 55.6677 7.47692 55.1175V36.7161L9.4691 38.7081V40.0247C9.4691 40.5749 9.91509 41.0208 10.4652 41.0208C10.8225 41.0208 11.1356 40.8327 11.3115 40.5504L31.3585 60.5967C32.3898 61.6278 33.7609 62.1957 35.2195 62.1957C36.678 62.1957 38.0492 61.6278 39.0805 60.5967L40.973 58.7041C41.0206 59.21 41.4464 59.6059 41.9647 59.6059C42.515 59.6059 42.9608 59.16 42.9608 58.6098V56.7164L44.953 54.7244V63.5092C44.953 65.4215 43.3974 66.977 41.4852 66.977H10.9449C9.03281 66.977 7.47718 65.4213 7.47718 63.5092V59.313C7.47718 58.7628 7.0312 58.3169 6.48109 58.3169C5.93098 58.3169 5.48499 58.7628 5.48499 59.313V63.5092C5.48499 66.5198 7.93432 68.9692 10.9451 68.9692H41.4853C44.496 68.9692 46.9455 66.5198 46.9455 63.5092V52.7322L60.6762 39.002C62.8046 36.8732 62.8046 33.4093 60.6759 31.2804Z" fill="black" stroke="white" stroke-width="0.5"/>
<path d="M13.2762 3.30189C13.2841 3.30189 13.2918 3.30175 13.2996 3.30162L28.0213 2.96202C28.9666 2.93997 29.8869 3.31039 30.5535 3.97697L53.9163 27.3387C54.1109 27.5331 54.3657 27.6303 54.6208 27.6303C54.8756 27.6303 55.1306 27.5331 55.3252 27.3387C55.7142 26.9496 55.7142 26.319 55.3252 25.9299L31.9624 2.56823C30.9128 1.51875 29.4557 0.938488 27.9755 0.970496L13.2536 1.30996C12.7037 1.32271 12.268 1.77879 12.2807 2.32877C12.2931 2.87091 12.7366 3.30189 13.2762 3.30189Z" fill="black" stroke="white" stroke-width="0.5"/>
<path d="M38.6774 17.3227C38.9324 17.3227 39.1873 17.2255 39.3818 17.031C39.7708 16.6419 39.7708 16.0113 39.3818 15.6223L37.9731 14.2135C37.584 13.8247 36.9534 13.8247 36.5642 14.2135C36.1752 14.6027 36.1752 15.2333 36.5642 15.6223L37.973 17.0309C38.1675 17.2253 38.4225 17.3227 38.6774 17.3227Z" fill="black" stroke="white" stroke-width="0.5"/>
<path d="M57.0382 33.2779L55.6295 31.8693C55.2403 31.4804 54.6097 31.4804 54.2206 31.8693C53.8316 32.2584 53.8316 32.889 54.2206 33.278L55.6293 34.6866C55.8239 34.8811 56.0789 34.9783 56.3338 34.9783C56.5888 34.9783 56.8436 34.8811 57.0382 34.6866C57.4272 34.2976 57.4272 33.667 57.0382 33.2779Z" fill="black" stroke="white" stroke-width="0.5"/>
<path d="M48.2101 24.4498L46.8013 23.0412C46.4122 22.6523 45.7816 22.6523 45.3925 23.0412C45.0035 23.4303 45.0035 24.0609 45.3925 24.4499L46.8012 25.8585C46.9958 26.053 47.2508 26.1502 47.5056 26.1502C47.7605 26.1502 48.0155 26.053 48.2101 25.8585C48.599 25.4695 48.599 24.8389 48.2101 24.4498Z" fill="black" stroke="white" stroke-width="0.5"/>
<path d="M43.0915 21.7366C43.3463 21.7366 43.6013 21.6394 43.7959 21.4449C44.1849 21.0558 44.1849 20.4252 43.7959 20.0362L42.3872 18.6276C41.9981 18.2389 41.3676 18.2386 40.9783 18.6276C40.5893 19.0167 40.5893 19.6473 40.9783 20.0363L42.387 21.4449C42.5816 21.6394 42.8365 21.7366 43.0915 21.7366Z" fill="black" stroke="white" stroke-width="0.5"/>
<path d="M52.624 28.8638L51.2153 27.4552C50.8261 27.0664 50.1955 27.0664 49.8064 27.4552C49.4174 27.8444 49.4174 28.475 49.8064 28.864L51.2151 30.2726C51.4097 30.467 51.6647 30.5642 51.9196 30.5642C52.1745 30.5642 52.4295 30.467 52.624 30.2726C53.013 29.8836 53.013 29.253 52.624 28.8638Z" fill="black" stroke="white" stroke-width="0.5"/>
<path d="M54.7967 36.4289L53.3879 37.8375C52.9989 38.2266 52.9989 38.8572 53.3879 39.2462C53.5825 39.4406 53.8375 39.5379 54.0924 39.5379C54.3474 39.5379 54.6023 39.4406 54.7968 39.2462L56.2056 37.8376C56.5946 37.4485 56.5946 36.8179 56.2056 36.4289C55.8166 36.04 55.1858 36.04 54.7967 36.4289Z" fill="black" stroke="white" stroke-width="0.5"/>
<path d="M50.3827 40.8424L48.974 42.251C48.585 42.6402 48.585 43.2708 48.974 43.6598C49.1686 43.8542 49.4236 43.9514 49.6784 43.9514C49.9334 43.9514 50.1883 43.8542 50.3829 43.6598L51.7916 42.2512C52.1806 41.862 52.1806 41.2314 51.7916 40.8424C51.4025 40.4536 50.7718 40.4536 50.3827 40.8424Z" fill="black" stroke="white" stroke-width="0.5"/>
<path d="M41.5546 49.6701L40.1458 51.0788C39.7568 51.468 39.7568 52.0985 40.1458 52.4876C40.3403 52.682 40.5952 52.7792 40.8502 52.7792C41.1051 52.7792 41.3601 52.682 41.5546 52.4876L42.9635 51.0788C43.3525 50.6897 43.3525 50.0591 42.9635 49.6701C42.5744 49.2813 41.9438 49.2811 41.5546 49.6701Z" fill="black" stroke="white" stroke-width="0.5"/>
<path d="M35.7317 56.9015C35.9263 57.0959 36.1812 57.1931 36.4362 57.1931C36.691 57.1931 36.946 57.0959 37.1406 56.9015L38.5493 55.4929C38.9383 55.1037 38.9383 54.4731 38.5493 54.0841C38.1602 53.6953 37.5296 53.6953 37.1405 54.0841L35.7317 55.4927C35.3428 55.8819 35.3428 56.5125 35.7317 56.9015Z" fill="black" stroke="white" stroke-width="0.5"/>
<path d="M45.2644 48.3655C45.5192 48.3655 45.7742 48.2683 45.9688 48.0738L47.3776 46.6652C47.7666 46.2761 47.7666 45.6455 47.3776 45.2565C46.9886 44.8678 46.358 44.8675 45.9687 45.2565L44.5599 46.6651C44.1709 47.0542 44.1709 47.6848 44.5599 48.0738C44.7545 48.2682 45.0095 48.3655 45.2644 48.3655Z" fill="black" stroke="white" stroke-width="0.5"/>
<path d="M17.9307 40.1262C17.5417 40.5154 17.5417 41.146 17.9307 41.535L19.3394 42.9436C19.534 43.138 19.789 43.2352 20.0439 43.2352C20.2987 43.2352 20.5537 43.138 20.7483 42.9436C21.1373 42.5544 21.1373 41.9238 20.7483 41.5348L19.3395 40.1262C18.9503 39.7371 18.3197 39.7374 17.9307 40.1262Z" fill="black" stroke="white" stroke-width="0.5"/>
<path d="M13.5167 35.7121C13.1277 36.1012 13.1277 36.7318 13.5167 37.1208L14.9255 38.5294C15.12 38.7239 15.375 38.8211 15.6299 38.8211C15.8848 38.8211 16.1398 38.7239 16.3343 38.5294C16.7234 38.1403 16.7234 37.5097 16.3343 37.1207L14.9256 35.7121C14.5365 35.3232 13.9057 35.3232 13.5167 35.7121Z" fill="black" stroke="white" stroke-width="0.5"/>
<path d="M5.46241 27.6583C5.0734 28.0474 5.0734 28.678 5.46241 29.067L6.09712 29.7018C6.29169 29.8962 6.54669 29.9934 6.80156 29.9934C7.05643 29.9934 7.31143 29.8962 7.506 29.7018C7.895 29.3126 7.895 28.682 7.506 28.293L6.87128 27.6583C6.48188 27.2694 5.85129 27.2696 5.46241 27.6583Z" fill="black" stroke="white" stroke-width="0.5"/>
<path d="M30.5536 6.79412L29.145 5.38551C28.7557 4.99637 28.1251 4.99663 27.7361 5.38551C27.3471 5.77465 27.3471 6.40524 27.7361 6.79425L29.1448 8.20286C29.3394 8.3973 29.5944 8.49451 29.8493 8.49451C30.1041 8.49451 30.3591 8.3973 30.5537 8.20286C30.9426 7.81385 30.9426 7.18326 30.5536 6.79412Z" fill="black" stroke="white" stroke-width="0.5"/>
<path d="M9.10253 31.2982C8.71352 31.6872 8.71352 32.3179 9.10266 32.7068L10.5115 34.1154C10.706 34.3098 10.9608 34.407 11.2158 34.407C11.4707 34.407 11.7257 34.3098 11.9203 34.1153C12.3093 33.7262 12.3093 33.0955 11.9201 32.7066L10.5113 31.298C10.1224 30.9092 9.49167 30.909 9.10253 31.2982Z" fill="black" stroke="white" stroke-width="0.5"/>
<path d="M34.9678 11.2081L33.559 9.79947C33.1699 9.41059 32.5393 9.41059 32.1502 9.79947C31.7611 10.1886 31.7611 10.8192 32.1502 11.2082L33.5589 12.6168C33.7535 12.8113 34.0085 12.9085 34.2633 12.9085C34.5183 12.9085 34.7732 12.8113 34.9678 12.6168C35.3568 12.2277 35.3568 11.5971 34.9678 11.2081Z" fill="black" stroke="white" stroke-width="0.5"/>
<path d="M22.3447 44.5398C21.9557 44.9289 21.9557 45.5595 22.3447 45.9485L23.7535 47.3571C23.948 47.5515 24.203 47.6488 24.4579 47.6488C24.7128 47.6488 24.9678 47.5515 25.1624 47.3571C25.5514 46.968 25.5514 46.3374 25.1624 45.9484L23.7536 44.5398C23.3642 44.1507 22.7336 44.1509 22.3447 44.5398Z" fill="black" stroke="white" stroke-width="0.5"/>
<path d="M31.1731 53.3678C30.7841 53.757 30.7841 54.3876 31.1731 54.7766L32.5818 56.1852C32.7764 56.3796 33.0313 56.4768 33.2863 56.4768C33.5412 56.4768 33.7962 56.3796 33.9907 56.1852C34.3797 55.796 34.3797 55.1654 33.9907 54.7764L32.582 53.3678C32.193 52.9791 31.5622 52.9788 31.1731 53.3678Z" fill="black" stroke="white" stroke-width="0.5"/>
<path d="M28.1677 51.7711C28.3622 51.9656 28.6172 52.0628 28.8721 52.0628C29.127 52.0628 29.382 51.9656 29.5765 51.7711C29.9655 51.382 29.9655 50.7514 29.5765 50.3624L28.1678 48.9538C27.7787 48.5649 27.1481 48.5649 26.7589 48.9538C26.3699 49.3429 26.3699 49.9735 26.7589 50.3625L28.1677 51.7711Z" fill="black" stroke="white" stroke-width="0.5"/>
<path d="M28.3632 35.78C29.0782 35.0649 29.4719 34.1145 29.4719 33.1034C29.4719 32.0924 29.0782 31.1417 28.3632 30.4269C27.6482 29.712 26.6976 29.3184 25.6865 29.3184C24.6754 29.3184 23.7249 29.712 23.0101 30.4269C22.295 31.1419 21.9014 32.0924 21.9014 33.1034C21.9014 34.1145 22.295 35.065 23.01 35.7798C23.7249 36.4949 24.6756 36.8887 25.6865 36.8887C26.6976 36.8885 27.6482 36.4949 28.3632 35.78ZM23.8936 33.1033C23.8936 32.6245 24.0799 32.1741 24.4187 31.8354C24.7572 31.4968 25.2076 31.3104 25.6864 31.3104C26.1654 31.3104 26.6155 31.4969 26.9542 31.8356H26.9544C27.293 32.1741 27.4795 32.6243 27.4795 33.1033C27.4795 33.5822 27.2929 34.0324 26.9542 34.3711C26.6155 34.7098 26.1653 34.8964 25.6864 34.8964C25.2075 34.8964 24.7572 34.7099 24.4187 34.3711C24.08 34.0325 23.8936 33.5823 23.8936 33.1033Z" fill="black" stroke="white" stroke-width="0.5"/>
<path d="M45.6255 33.1035C45.6255 32.0925 45.2319 31.1419 44.5169 30.4271C43.0408 28.9514 40.6395 28.9514 39.1638 30.4271C38.4487 31.142 38.0549 32.0925 38.0549 33.1035C38.0549 34.1146 38.4487 35.0652 39.1636 35.7801C39.9017 36.518 40.871 36.8869 41.8404 36.8869C42.8096 36.8869 43.7789 36.518 44.5169 35.7801C45.2319 35.0652 45.6255 34.1147 45.6255 33.1035ZM43.108 34.3713C42.4088 35.0705 41.2714 35.0705 40.5724 34.3713C40.2337 34.0327 40.0471 33.5826 40.0471 33.1035C40.0471 32.6247 40.2336 32.1744 40.5724 31.8358C40.922 31.4863 41.3811 31.3115 41.8402 31.3115C42.2992 31.3115 42.7584 31.4863 43.1079 31.8358H43.108C43.4467 32.1744 43.6331 32.6246 43.6331 33.1035C43.6332 33.5826 43.4467 34.0328 43.108 34.3713Z" fill="black" stroke="white" stroke-width="0.5"/>
<path d="M34.7595 43.0585V23.1489C34.7595 22.5987 34.3135 22.1528 33.7634 22.1528C33.2132 22.1528 32.7673 22.5987 32.7673 23.1489V43.0585C32.7673 43.6087 33.2133 44.0545 33.7634 44.0545C34.3135 44.0545 34.7595 43.6086 34.7595 43.0585Z" fill="black" stroke="white" stroke-width="0.5"/>
<path d="M13.9956 9.00439C11.2493 9.00439 9.01489 11.2386 9.01489 13.9849C9.01489 16.7312 11.2492 18.9653 13.9956 18.9653C16.7421 18.9653 18.9764 16.7312 18.9764 13.9849C18.9764 11.2386 16.7421 9.00439 13.9956 9.00439ZM13.9956 10.9966C14.4352 10.9966 14.8529 11.0919 15.2292 11.2631L11.2198 15.0917C11.0828 14.7492 11.0073 14.3757 11.0073 13.9849C11.0072 12.3372 12.3478 10.9966 13.9956 10.9966ZM13.9956 16.9731C13.4653 16.9731 12.9667 16.8342 12.5344 16.5909L16.6665 12.6452C16.8696 13.0484 16.984 13.5036 16.984 13.9849C16.984 15.6325 15.6434 16.9731 13.9956 16.9731Z" fill="black" stroke="white" stroke-width="0.5"/>
</svg>
